#!OML:ASF F:\VICON\USERDATA\INSTALL\rory3\rory3.ASF
:FULLY-SPECIFIED
:DEGREES
359
root 5.19798 16.973 2.15904 7.85059 -12.4718 -7.77778
lowerback 18.257 -0.823366 3.82712
upperback 4.27498 -0.28789 1.75939
thorax -5.62903 -0.197117 -0.230492
lowerneck -14.1959 -0.505275 -2.04885
upperneck 40.0166 -0.382306 0.0145257
head 16.9167 -0.560146 0.278359
rclavicle -3.33958e-014 2.50469e-014
rhumerus -37.4192 -3.40018 -29.4654
rradius 43.4075
rwrist 0.418484
rhand -15.5309 -43.1591
rfingers 7.12502
rthumb 10.6527 -72.8691
lclavicle -3.33958e-014 2.50469e-014
lhumerus -27.8213 6.64843 23.5358
lradius 33.7861
lwrist 20.3489
lhand -23.0866 -22.4588
lfingers 7.12502
lthumb 3.35945 7.49446
rfemur -102.609 1.44878 27.0919
rtibia 109.564
rfoot 49.7914 2.8641
rtoes -5.89053
lfemur -28.2399 4.17799 -23.0229
ltibia 41.6041
lfoot -18.7705 9.35274
ltoes 15.495
360
root 5.2038 16.9738 2.15915 7.87216 -12.5904 -7.91664
lowerback 18.282 -0.80431 3.92939
upperback 4.40616 -0.249973 1.74747
thorax -5.50042 -0.177549 -0.310568
lowerneck -14.2745 -0.498707 -1.76322
upperneck 39.8466 -0.354745 -0.250074
head 16.8412 -0.540128 0.113748
rclavicle -3.97569e-016 1.31198e-014
rhumerus -37.7049 -3.37743 -29.3684
rradius 43.5974
rwrist 0.214152
rhand -15.3362 -43.5204
rfingers 7.12502
rthumb 10.8405 -73.2206
lclavicle -3.97569e-016 1.31198e-014
lhumerus -28.1877 6.80661 23.4318
lradius 33.7838
lwrist 20.113
lhand -22.7695 -23.037
lfingers 7.12502
lthumb 3.66569 6.91118
rfemur -102.569 1.64891 27.2038
rtibia 109.146
rfoot 49.9337 2.53191
rtoes -4.89281
lfemur -28.263 4.3943 -22.9093
ltibia 41.6851
lfoot -18.784 9.32991
ltoes 15.6195
361
root 5.20979 16.9724 2.1619 7.88298 -12.7732 -7.96266
lowerback 18.2554 -0.766126 3.95448
upperback 4.57038 -0.2092 1.68096
thorax -5.3089 -0.154487 -0.406394
lowerneck -14.5845 -0.50481 -1.55307
upperneck 39.8918 -0.382575 -0.35807
head 16.944 -0.534896 0.0211523
rclavicle 5.76476e-015 7.95139e-015
rhumerus -37.7976 -3.49782 -29.2626
rradius 43.4499
rwrist 0.234739
rhand -15.1227 -44.1745
rfingers 7.12502
rthumb 11.0464 -73.8638
lclavicle 5.76476e-015 7.95139e-015
lhumerus -28.5845 6.92042 23.3028
lradius 33.6993
lwrist 19.9042
lhand -22.7557 -24.0995
lfingers 7.12502
lthumb 3.67898 5.84854
rfemur -102.567 1.83161 27.1922
rtibia 108.804
rfoot 49.9963 2.15076
rtoes -4.19522
lfemur -28.2672 4.69779 -22.9219
ltibia 41.7431
lfoot -18.8703 9.24557
ltoes 15.8106
362
root 5.21615 16.9685 2.16056 7.88224 -13.0147 -7.93967
lowerback 18.283 -0.698533 3.92903
upperback 4.74629 -0.139666 1.5691
thorax -5.13273 -0.11697 -0.527664
lowerneck -15.0243 -0.544379 -1.57885
upperneck 40.1208 -0.507241 -0.159944
head 17.1856 -0.563674 0.0894154
rclavicle -3.37934e-015 3.97569e-016
rhumerus -37.7535 -3.85597 -29.1159
rradius 42.8915
rwrist 0.435834
rhand -15.1725 -44.1757
rfingers 7.12502
rthumb 10.9984 -73.8676
lclavicle -3.37934e-015 3.97569e-016
lhumerus -28.7236 7.23167 23.1518
lradius 33.5192
lwrist 19.7693
lhand -23.023 -24.365
lfingers 7.12502
lthumb 3.42087 5.58727
rfemur -102.629 2.0421 27.1161
rtibia 108.468
rfoot 50.087 1.87199
rtoes -3.50154
lfemur -28.2628 5.05593 -23.0217
ltibia 41.7601
lfoot -18.9244 9.09832
ltoes 15.8377
363
root 5.22111 16.9661 2.15408 7.91313 -13.1456 -7.94346
lowerback 18.4496 -0.673469 3.86465
upperback 4.77465 -0.113312 1.54317
thorax -5.1898 -0.104579 -0.523802
lowerneck -15.1432 -0.549844 -1.75589
upperneck 40.3332 -0.547449 0.061123
head 17.3379 -0.578869 0.212795
rclavicle -3.45885e-014 1.31198e-014
rhumerus -37.5654 -4.19961 -28.8182
rradius 42.0521
rwrist 0.827243
rhand -15.6943 -43.3966
rfingers 7.12502
rthumb 10.4951 -73.1146
lclavicle -3.45885e-014 1.31198e-014
lhumerus -28.9174 7.55466 23.0207
lradius 33.2575
lwrist 19.609
lhand -23.3257 -24.7912
lfingers 7.12502
lthumb 3.12859 5.1656
rfemur -102.723 2.18961 27.0963
rtibia 108.117
rfoot 50.2946 1.29525
rtoes -2.47059
lfemur -28.314 5.35881 -23.0619
ltibia 41.7448
lfoot -18.8629 8.9543
ltoes 15.794
364
root 5.2276 16.9633 2.15138 7.8851 -13.2437 -7.70547
lowerback 18.6666 -0.657368 3.54798
upperback 4.75997 -0.142745 1.49312
thorax -5.32217 -0.118401 -0.389581
lowerneck -15.1853 -0.515138 -1.81227
upperneck 40.3921 -0.493645 0.103101
head 17.3818 -0.561263 0.251601
rclavicle -3.75703e-014 3.22031e-014
rhumerus -37.4839 -4.24212 -28.5769
rradius 41.7153
rwrist 0.985328
rhand -16.042 -43.3783
rfingers 7.12502
rthumb 10.1596 -73.113
lclavicle -3.75703e-014 3.22031e-014
lhumerus -29.2375 7.87612 22.8708
lradius 32.9133
lwrist 19.358
lhand -23.2955 -26.3815
lfingers 7.12502
lthumb 3.1577 3.57489
rfemur -102.898 2.17098 26.83
rtibia 107.87
rfoot 49.7924 1.5134
rtoes -2.53142
lfemur -28.3269 5.69364 -23.3766
ltibia 41.7113
lfoot -18.8702 8.69818
ltoes 15.7965
365
root 5.23494 16.9605 2.15048 7.78082 -13.336 -7.42886
lowerback 18.8861 -0.624902 3.25709
upperback 4.84058 -0.154213 1.39947
thorax -5.35258 -0.121684 -0.32094
lowerneck -15.386 -0.515963 -1.67263
upperneck 40.3127 -0.477845 -0.0376562
head 17.388 -0.551627 0.164943
rclavicle -8.34896e-015 2.54444e-014
rhumerus -37.7175 -4.15903 -28.4343
rradius 41.9887
rwrist 0.805918
rhand -15.7412 -44.0096
rfingers 7.12502
rthumb 10.4498 -73.7299
lclavicle -8.34896e-015 2.54444e-014
lhumerus -29.5276 8.13241 22.7725
lradius 32.8677
lwrist 19.2235
lhand -23.2692 -26.7785
lfingers 7.12502
lthumb 3.18318 3.17745
rfemur -102.986 2.08137 26.5382
rtibia 107.625
rfoot 49.5768 1.17056
rtoes -2.46004
lfemur -28.2503 6.02471 -23.733
ltibia 41.6967
lfoot -18.8756 8.39822
ltoes 15.4749
366
root 5.24002 16.9563 2.14742 7.75936 -13.3159 -7.4085
lowerback 19.0149 -0.610879 3.27473
upperback 4.94407 -0.133171 1.36638
thorax -5.30891 -0.110723 -0.370855
lowerneck -15.4219 -0.55792 -1.59732
upperneck 40.1075 -0.536502 -0.0999568
head 17.2818 -0.569476 0.113089
rclavicle 3.77691e-015 -1.55052e-014
rhumerus -38.0642 -4.25666 -28.1678
rradius 42.1041
rwrist 0.54198
rhand -15.559 -44.1762
rfingers 7.12502
rthumb 10.6255 -73.8876
lclavicle 3.77691e-015 -1.55052e-014
lhumerus -29.7911 8.22845 22.7794
lradius 33.0889
lwrist 19.2498
lhand -23.4711 -25.9716
lfingers 7.12502
lthumb 2.98816 3.98719
rfemur -103.01 1.99519 26.5396
rtibia 107.301
rfoot 49.5372 1.16589
rtoes -2.64201
lfemur -28.2607 6.28326 -23.7882
ltibia 41.744
lfoot -18.8225 8.19681
ltoes 14.558
367
root 5.24314 16.9485 2.14703 7.77447 -13.2712 -7.43121
lowerback 18.9924 -0.616464 3.34876
upperback 5.06041 -0.133657 1.34122
thorax -5.17203 -0.109247 -0.440341
lowerneck -15.2188 -0.566122 -1.60656
upperneck 39.8268 -0.557908 -0.0699461
head 17.0732 -0.57261 0.126475
rclavicle -3.65764e-014 -1.19271e-015
rhumerus -38.2723 -4.45679 -27.8707
rradius 41.8897
rwrist 0.384435
rhand -15.9906 -43.6972
rfingers 7.12502
rthumb 10.2092 -73.4294
lclavicle -3.65764e-014 -1.19271e-015
lhumerus -30.0262 8.33724 22.7555
lradius 33.2168
lwrist 19.2959
lhand -23.4963 -25.0225
lfingers 7.12502
lthumb 2.96383 4.93661
rfemur -103.099 1.90281 26.5869
rtibia 107.065
rfoot 49.4289 1.51038
rtoes -3.05261
lfemur -28.3504 6.65254 -23.8131
ltibia 41.853
lfoot -18.8372 7.97226
ltoes 13.4103
368
root 5.24651 16.9424 2.14381 7.77154 -13.1765 -7.46394
lowerback 19.1303 -0.681046 3.38863
upperback 5.07584 -0.204013 1.34908
thorax -5.23032 -0.144541 -0.437486
lowerneck -14.9373 -0.533246 -1.66278
upperneck 39.6456 -0.498538 -0.0597409
head 16.9012 -0.554918 0.153536
rclavicle -4.25399e-014 -3.33958e-014
rhumerus -38.3225 -4.51251 -27.5839
rradius 41.5606
rwrist 0.385072
rhand -16.1817 -43.2264
rfingers 7.12502
rthumb 10.0249 -72.9676
lclavicle -4.25399e-014 -3.33958e-014
lhumerus -30.3753 8.23515 22.6968
lradius 33.2826
lwrist 19.3198
lhand -23.5295 -23.9086
lfingers 7.12502
lthumb 2.93174 6.05098
rfemur -103.175 1.76258 26.6485
rtibia 106.816
rfoot 49.4421 1.65155
rtoes -2.75372
lfemur -28.4936 7.09118 -23.8332
ltibia 42.0106
lfoot -18.8986 7.61315
ltoes 12.3992
369
root 5.25073 16.9432 2.13162 7.84693 -12.932 -7.60075
lowerback 19.443 -0.808196 3.48216
upperback 4.99031 -0.327714 1.43522
thorax -5.49063 -0.209275 -0.366264
lowerneck -14.7196 -0.53091 -1.77809
upperneck 39.45 -0.481983 -0.00911092
head 16.74 -0.557647 0.200986
rclavicle 2.48481e-014 -2.78299e-015
rhumerus -38.3642 -4.41404 -27.2585
rradius 41.269
rwrist 0.225721
rhand -16.0674 -43.0834
rfingers 7.12502
rthumb 10.1352 -72.8193
lclavicle 2.48481e-014 -2.78299e-015
lhumerus -30.7653 8.08267 22.6198
lradius 33.1202
lwrist 19.2881
lhand -23.7415 -24.2206
lfingers 7.12502
lthumb 2.72701 5.7417
rfemur -103.249 1.54204 26.8505
rtibia 106.383
rfoot 49.4916 1.93919
rtoes -2.78965
lfemur -28.7551 7.32218 -23.7113
ltibia 42.1844
lfoot -18.9131 7.25041
ltoes 11.6747
370
root 5.25256 16.9444 2.1169 7.94306 -12.7051 -7.74227
lowerback 19.6545 -0.895327 3.55917
upperback 4.99974 -0.411127 1.50862
thorax -5.59414 -0.251752 -0.309367
lowerneck -14.7559 -0.552859 -1.79189
upperneck 39.2748 -0.50885 -0.0056666
head 16.6551 -0.568317 0.20063
rclavicle 4.1546e-014 -1.63003e-014
rhumerus -38.5109 -4.25449 -27.0575
rradius 41.2891
rwrist -0.306283
rhand -16.3083 -43.2835
rfingers 7.12502
rthumb 9.9027 -73.0306
lclavicle 4.1546e-014 -1.63003e-014
lhumerus -31.0528 8.25603 22.5021
lradius 32.8338
lwrist 19.1835
lhand -23.9283 -26.1026
lfingers 7.12502
lthumb 2.54662 3.86199
rfemur -103.341 1.36103 27.069
rtibia 105.905
rfoot 49.3631 2.2273
rtoes -3.19301
lfemur -29.0419 7.52141 -23.5722
ltibia 42.3664
lfoot -18.8885 6.9124
ltoes 11.0812
371
root 5.25162 16.9414 2.10706 7.97912 -12.6213 -7.8099
lowerback 19.7506 -0.900116 3.52911
upperback 5.0778 -0.419466 1.54374
thorax -5.5604 -0.254795 -0.252347
lowerneck -14.8937 -0.568298 -1.66525
upperneck 39.275 -0.500086 -0.178928
head 16.6888 -0.569251 0.102159
rclavicle -1.47101e-014 -1.63003e-014
rhumerus -38.785 -3.91413 -26.9669
rradius 41.647
rwrist -1.00001
rhand -16.4106 -43.8661
rfingers 7.12502
rthumb 9.80402 -73.6179
lclavicle -1.47101e-014 -1.63003e-014
lhumerus -31.3501 8.45122 22.4458
lradius 32.795
lwrist 19.0446
lhand -24.0654 -26.6885
lfingers 7.12502
lthumb 2.41422 3.27758
rfemur -103.406 1.30376 27.1986
rtibia 105.473
rfoot 49.2656 2.19312
rtoes -3.45409
lfemur -29.2821 7.89368 -23.5193
ltibia 42.5486
lfoot -18.8732 6.52572
ltoes 10.9669
